<?xml version="1.0" standalone="no"?>
<!DOCTYPE svg PUBLIC "-//W3C//DTD SVG 20010904//EN"
 "http://www.w3.org/TR/2001/REC-SVG-20010904/DTD/svg10.dtd">
<svg version="1.0" xmlns="http://www.w3.org/2000/svg"
 width="750.000000pt" height="750.000000pt" viewBox="0 0 750.000000 750.000000"
 preserveAspectRatio="xMidYMid meet">
<metadata>
Created by potrace 1.14, written by Peter Selinger 2001-2017
</metadata>
<g transform="translate(0.000000,750.000000) scale(0.100000,-0.100000)"
fill="#000000" stroke="none">
<path d="M2108 5815 c-2 -1 -73 -5 -158 -8 -85 -4 -164 -8 -175 -10 -11 -3
-47 -8 -80 -13 -33 -4 -62 -8 -65 -9 -3 0 -27 -5 -55 -9 -227 -36 -538 -167
-695 -293 -106 -86 -178 -173 -234 -288 -75 -151 -100 -271 -100 -470 0 -189
21 -304 79 -431 102 -224 346 -422 640 -522 151 -51 388 -119 476 -136 13 -2
47 -9 74 -16 28 -6 102 -23 165 -36 142 -31 131 -29 210 -48 120 -31 247 -76
293 -106 101 -64 121 -203 41 -283 -61 -60 -221 -99 -413 -99 -325 -1 -493 70
-546 231 -17 53 -35 170 -28 189 3 7 -4 12 -18 13 -13 0 -250 1 -527 2 l-502
2 -1 -30 c-5 -151 29 -350 82 -490 61 -162 169 -303 305 -401 167 -120 485
-236 734 -268 48 -7 119 -16 155 -21 69 -10 261 -19 420 -19 225 0 355 12 525
49 157 35 177 41 288 85 465 187 692 509 707 1003 3 107 -10 254 -28 322 -35
125 -101 239 -196 335 -172 173 -337 258 -686 355 -33 9 -73 20 -90 25 -29 9
-376 85 -425 94 -73 12 -333 81 -405 107 -123 45 -188 107 -198 189 -11 95 74
183 213 220 77 21 82 21 203 24 190 5 301 -28 388 -114 51 -51 87 -132 91
-205 l3 -45 60 -1 c309 -3 967 0 972 5 6 6 4 153 -3 189 -2 12 -7 38 -10 57
-40 239 -186 455 -406 597 -237 153 -560 248 -913 269 -60 3 -122 7 -137 9
-15 1 -29 1 -30 0z"/>
<path d="M4310 5752 l-55 -3 1 -1708 c1 -940 3 -1715 6 -1723 5 -11 241 -13
1429 -12 783 1 1429 2 1434 3 7 1 10 148 9 434 -1 237 -2 435 -3 439 0 4 -394
6 -875 6 -480 0 -877 2 -882 5 -5 3 -9 557 -9 1281 l0 1276 -65 0 c-556 4
-946 4 -990 2z"/>
</g>
</svg>
